#!OML:ASF H:\LiuWeirdWalks\Patient Classification 1\Patient 1\Session 1\male.ASF
:FULLY-SPECIFIED
:DEGREES
477
root 1.29701 18.0091 4.12224 0.786136 2.24393 -7.80091
lowerback 4.03916 0.293387 4.87646
upperback -2.03636 0.849475 4.08951
thorax -4.37633 0.345228 1.43804
lowerneck -18.9361 0.573935 4.16766
upperneck 26.2226 1.01418 -5.19774
head 11.7719 0.199828 -2.48908
rclavicle 2.80783e-015 -2.42517e-014
rhumerus -42.5061 -8.97013 -69.5007
rradius 33.7814
rwrist -7.75187
rhand -15.4419 -3.74001
rfingers 7.12502
rthumb 10.7385 -33.4455
lclavicle 2.80783e-015 -2.42517e-014
lhumerus -44.1795 1.37201 81.3391
lradius 39.1021
lwrist 6.85187
lhand -10.7718 -0.528582
lfingers 7.12502
lthumb 15.2403 28.89
rfemur 13.5066 -0.508661 32.5584
rtibia 13.0888
rfoot -6.72102 -13.9953
rtoes -15.8838
lfemur -27.8338 -0.653847 -11.8302
ltibia 24.5814
lfoot -11.5773 9.70675
ltoes -19.0725
478
root 1.31699 18.0017 4.27238 0.761656 2.26638 -7.69495
lowerback 4.00461 0.271134 4.80969
upperback -2.02795 0.811454 4.06419
thorax -4.34844 0.328338 1.45183
lowerneck -18.9625 0.582204 4.15016
upperneck 26.2474 1.02592 -5.17888
head 11.7874 0.205515 -2.478
rclavicle 8.15017e-015 3.26007e-014
rhumerus -42.621 -9.08031 -69.3893
rradius 33.6883
rwrist -7.67653
rhand -15.4527 -3.74135
rfingers 7.12502
rthumb 10.7281 -33.4474
lclavicle 8.15017e-015 3.26007e-014
lhumerus -44.2662 1.41445 81.3347
lradius 39.0384
lwrist 6.80781
lhand -10.7918 -0.530655
lfingers 7.12502
lthumb 15.221 28.8894
rfemur 13.4457 -0.434759 32.4092
rtibia 14.2394
rfoot -6.71825 -14.0605
rtoes -16.6209
lfemur -27.4255 -0.882964 -11.9865
ltibia 24.8144
lfoot -11.5948 8.9688
ltoes -19.5446
479
root 1.33825 17.9984 4.42505 0.729808 2.27603 -7.55811
lowerback 3.95555 0.25546 4.72881
upperback -2.01462 0.779471 4.02585
thorax -4.30698 0.314842 1.45945
lowerneck -18.9431 0.594465 4.17286
upperneck 26.2133 1.04129 -5.19832
head 11.7714 0.212293 -2.48585
rclavicle 2.74571e-015 -3.26007e-014
rhumerus -42.735 -9.24591 -69.2494
rradius 33.5513
rwrist -7.52194
rhand -15.4486 -3.65875
rfingers 7.12502
rthumb 10.7321 -33.3646
lclavicle 2.74571e-015 -3.26007e-014
lhumerus -44.3461 1.4427 81.3359
lradius 38.9587
lwrist 6.75251
lhand -10.7967 -0.502892
lfingers 7.12502
lthumb 15.2163 28.9175
rfemur 13.3809 -0.364212 32.2164
rtibia 15.4029
rfoot -6.61738 -14.0895
rtoes -17.3926
lfemur -27.0187 -1.17056 -12.1627
ltibia 25.0169
lfoot -11.5715 8.33985
ltoes -20.2425
480
root 1.36088 17.999 4.57962 0.691361 2.27429 -7.37296
lowerback 3.89754 0.242752 4.61268
upperback -1.99221 0.747634 3.97108
thorax -4.25096 0.302377 1.46954
lowerneck -18.9631 0.604446 4.1737
upperneck 26.2316 1.053 -5.19126
head 11.7832 0.218348 -2.48214
rclavicle 9.96408e-015 -2.06736e-014
rhumerus -42.8242 -9.44685 -69.0999
rradius 33.3697
rwrist -7.33221
rhand -15.4723 -3.53916
rfingers 7.12502
rthumb 10.7092 -33.2462
lclavicle 9.96408e-015 -2.06736e-014
lhumerus -44.4015 1.47868 81.3324
lradius 38.853
lwrist 6.69242
lhand -10.8034 -0.466344
lfingers 7.12502
lthumb 15.2099 28.9546
rfemur 13.2832 -0.303991 31.9556
rtibia 16.6346
rfoot -6.4413 -14.0749
rtoes -18.1567
lfemur -26.611 -1.46561 -12.3971
ltibia 25.1782
lfoot -11.4597 7.84865
ltoes -21.1256
481
root 1.38374 18.0033 4.73512 0.648832 2.2552 -7.13984
lowerback 3.85441 0.241377 4.45338
upperback -1.97723 0.729651 3.89991
thorax -4.21114 0.297417 1.48568
lowerneck -18.9415 0.615324 4.19755
upperneck 26.2232 1.06503 -5.20401
head 11.7765 0.224716 -2.48879
rclavicle 6.29899e-015 -1.39149e-014
rhumerus -42.9013 -9.70742 -68.9187
rradius 33.1067
rwrist -7.08905
rhand -15.5093 -3.34597
rfingers 7.12502
rthumb 10.6735 -33.0549
lclavicle 6.29899e-015 -1.39149e-014
lhumerus -44.4382 1.49324 81.337
lradius 38.6909
lwrist 6.59709
lhand -10.8421 -0.482841
lfingers 7.12502
lthumb 15.1726 28.9409
rfemur 13.1177 -0.24522 31.6366
rtibia 17.9876
rfoot -6.18135 -14.0272
rtoes -18.9562
lfemur -26.1954 -1.74338 -12.6861
ltibia 25.2982
lfoot -11.2474 7.50335
ltoes -22.0192
482
root 1.40637 18.0099 4.89155 0.596521 2.24531 -6.83472
lowerback 3.82072 0.235354 4.21013
upperback -1.9659 0.701309 3.81351
thorax -4.18099 0.289213 1.53369
lowerneck -18.9137 0.614749 4.17961
upperneck 26.2568 1.06621 -5.18397
head 11.7838 0.226404 -2.4786
rclavicle 8.15017e-015 9.93923e-015
rhumerus -42.9678 -9.96579 -68.7348
rradius 32.8036
rwrist -6.84194
rhand -15.5753 -3.18851
rfingers 7.12502
rthumb 10.6099 -32.9007
lclavicle 8.15017e-015 9.93923e-015
lhumerus -44.4714 1.52724 81.3349
lradius 38.4861
lwrist 6.47597
lhand -10.8983 -0.545548
lfingers 7.12502
lthumb 15.1185 28.8823
rfemur 12.869 -0.218097 31.2306
rtibia 19.5064
rfoot -5.86229 -13.9436
rtoes -19.7692
lfemur -25.7456 -1.97618 -13.0694
ltibia 25.3788
lfoot -10.9108 7.26079
ltoes -22.648
483
root 1.42915 18.0178 5.04834 0.533921 2.26129 -6.45302
lowerback 3.79204 0.219654 3.88705
upperback -1.94828 0.655087 3.70699
thorax -4.14742 0.274016 1.60676
lowerneck -18.9078 0.616483 4.15522
upperneck 26.3248 1.07206 -5.16022
head 11.809 0.229844 -2.46619
rclavicle -2.98177e-016 -2.74323e-014
rhumerus -43.0118 -10.2642 -68.5368
rradius 32.4554
rwrist -6.55936
rhand -15.6492 -2.98545
rfingers 7.12502
rthumb 10.5385 -32.7013
lclavicle -2.98177e-016 -2.74323e-014
lhumerus -44.4829 1.58005 81.3234
lradius 38.2478
lwrist 6.35144
lhand -10.9706 -0.629737
lfingers 7.12502
lthumb 15.0489 28.8033
rfemur 12.5225 -0.257979 30.7215
rtibia 21.2084
rfoot -5.48055 -13.8012
rtoes -20.6105
lfemur -25.2457 -2.16073 -13.5546
ltibia 25.4293
lfoot -10.4954 7.07932
ltoes -22.9332
484
root 1.45186 18.0264 5.20512 0.460156 2.31308 -6.0059
lowerback 3.76709 0.19018 3.49406
upperback -1.9268 0.586301 3.58249
thorax -4.11193 0.249156 1.70205
lowerneck -18.8509 0.614693 4.14194
upperneck 26.3464 1.07413 -5.15218
head 11.806 0.231101 -2.46066
rclavicle -4.5472e-015 -5.28767e-014
rhumerus -43.0477 -10.5477 -68.3538
rradius 32.0973
rwrist -6.29548
rhand -15.73 -2.83475
rfingers 7.12502
rthumb 10.4607 -32.5545
lclavicle -4.5472e-015 -5.28767e-014
lhumerus -44.4726 1.65754 81.2938
lradius 37.9675
lwrist 6.21269
lhand -11.0433 -0.720894
lfingers 7.12502
lthumb 14.9788 28.7174
rfemur 12.0771 -0.385834 30.1132
rtibia 23.0916
rfoot -5.02221 -13.5823
rtoes -21.462
lfemur -24.6858 -2.29384 -14.1297
ltibia 25.4539
lfoot -10.0137 6.91262
ltoes -22.8005
485
root 1.47505 18.0351 5.36165 0.370395 2.39744 -5.55556
lowerback 3.7555 0.146278 3.10209
upperback -1.90268 0.499297 3.45701
thorax -4.08069 0.215003 1.79727
lowerneck -18.7987 0.612157 4.12772
upperneck 26.3779 1.07626 -5.14653
head 11.8077 0.231929 -2.45613
rclavicle -2.72087e-015 -5.1684e-015
rhumerus -43.1001 -10.8089 -68.1829
rradius 31.7609
rwrist -6.04461
rhand -15.7792 -2.68694
rfingers 7.12502
rthumb 10.4131 -32.4091
lclavicle -2.72087e-015 -5.1684e-015
lhumerus -44.4666 1.75822 81.2487
lradius 37.6817
lwrist 6.08285
lhand -11.0835 -0.778411
lfingers 7.12502
lthumb 14.94 28.6628
rfemur 11.5346 -0.60878 29.4654
rtibia 25.1362
rfoot -4.44926 -13.2635
rtoes -22.3096
lfemur -24.073 -2.3672 -14.7231
ltibia 25.4647
lfoot -9.55787 6.73942
ltoes -22.4856
486
root 1.49845 18.0435 5.51787 0.263426 2.50273 -5.12264
lowerback 3.74715 0.0961095 2.73241
upperback -1.86776 0.405337 3.33769
thorax -4.03931 0.176796 1.88703
lowerneck -18.7672 0.602208 4.08902
upperneck 26.4424 1.07068 -5.12279
head 11.8258 0.228989 -2.44275
rclavicle -6.57232e-015 -2.70347e-014
rhumerus -43.1578 -11.0422 -68.0288
rradius 31.4783
rwrist -5.87782
rhand -15.8012 -2.66006
rfingers 7.12502
rthumb 10.3919 -32.3833
lclavicle -6.57232e-015 -2.70347e-014
lhumerus -44.4511 1.86981 81.2012
lradius 37.4033
lwrist 5.96329
lhand -11.09 -0.792748
lfingers 7.12502
lthumb 14.9338 28.6489
rfemur 10.9068 -0.914365 28.7982
rtibia 27.3127
rfoot -3.7324 -12.8358
rtoes -22.9929
lfemur -23.4217 -2.38204 -15.3058
ltibia 25.4731
lfoot -9.17192 6.54152
ltoes -22.0933
487
root 1.52156 18.0518 5.6728 0.143919 2.60378 -4.77056
lowerback 3.766 0.0482666 2.44302
upperback -1.83688 0.321526 3.2424
thorax -4.01702 0.141569 1.95623
lowerneck -18.7151 0.592658 4.06558
upperneck 26.4749 1.06416 -5.11197
head 11.8273 0.225663 -2.43605
rclavicle 4.13721e-015 3.97569e-015
rhumerus -43.2387 -11.2346 -67.886
rradius 31.2324
rwrist -5.74043
rhand -15.7766 -2.6283
rfingers 7.12502
rthumb 10.4157 -32.3503
lclavicle 4.13721e-015 3.97569e-015
lhumerus -44.4425 1.97121 81.1581
lradius 37.1379
lwrist 5.85852
lhand -11.0503 -0.788401
lfingers 7.12502
lthumb 14.972 28.6504
rfemur 10.1851 -1.26957 28.1872
rtibia 29.5956
rfoot -2.80638 -12.294
rtoes -23.5157
lfemur -22.7652 -2.33846 -15.7965
ltibia 25.4929
lfoot -8.93296 6.30044
ltoes -21.8267
488
root 1.54473 18.0598 5.82673 0.00484152 2.69061 -4.52165
lowerback 3.8119 0.000666631 2.253
upperback -1.80043 0.245752 3.18101
thorax -4.00396 0.108078 2.00445
lowerneck -18.6896 0.590754 4.03925
upperneck 26.5192 1.06729 -5.09547
head 11.8393 0.226843 -2.42572
rclavicle -1.11816e-015 3.18055e-015
rhumerus -43.3189 -11.383 -67.7651
rradius 31.0309
rwrist -5.64871
rhand -15.7346 -2.62789
rfingers 7.12502
rthumb 10.4562 -32.3479
lclavicle -1.11816e-015 3.18055e-015
lhumerus -44.4441 2.07565 81.1245
lradius 36.9206
lwrist 5.78394
lhand -10.9779 -0.751805
lfingers 7.12502
lthumb 15.0418 28.6818
rfemur 9.38148 -1.66304 27.6536
rtibia 31.9696
rfoot -1.65488 -11.6428
rtoes -23.8244
lfemur -22.1038 -2.25131 -16.1716
ltibia 25.5248
lfoot -8.84639 6.04173
ltoes -21.7849
489
root 1.56829 18.0678 5.97954 -0.147299 2.73403 -4.37846
lowerback 3.89021 -0.0295093 2.17798
upperback -1.76793 0.202248 3.15052
thorax -4.01373 0.0879489 2.01812
lowerneck -18.6844 0.589377 3.99651
upperneck 26.579 1.07374 -5.07012
head 11.8616 0.228816 -2.40924
rclavicle -7.45443e-016 -2.42517e-014
rhumerus -43.4182 -11.4903 -67.6521
rradius 30.8614
rwrist -5.58757
rhand -15.6773 -2.62586
rfingers 7.12502
rthumb 10.5115 -32.343
lclavicle -7.45443e-016 -2.42517e-014
lhumerus -44.4502 2.14096 81.1208
lradius 36.7318
lwrist 5.73101
lhand -10.8991 -0.715894
lfingers 7.12502
lthumb 15.1177 28.712
rfemur 8.48768 -2.06366 27.2012
rtibia 34.4267
rfoot -0.253496 -10.8927
rtoes -23.8688
lfemur -21.4393 -2.13852 -16.4232
ltibia 25.564
lfoot -8.92381 5.79575
ltoes -21.9276
490
root 1.59292 18.0759 6.13141 -0.303381 2.73682 -4.28553
lowerback 3.98604 -0.0530469 2.15949
upperback -1.74135 0.172371 3.13813
thorax -4.0398 0.0733212 2.01805
lowerneck -18.653 0.598239 3.97776
upperneck 26.6125 1.09656 -5.07637
head 11.8695 0.236681 -2.40542
rclavicle 5.71506e-016 -2.06736e-014
rhumerus -43.5157 -11.5282 -67.5673
rradius 30.7239
rwrist -5.57408
rhand -15.6127 -2.66733
rfingers 7.12502
rthumb 10.5737 -32.3813
lclavicle 5.71506e-016 -2.06736e-014
lhumerus -44.4746 2.18509 81.1387
lradius 36.576
lwrist 5.71678
lhand -10.8176 -0.680964
lfingers 7.12502
lthumb 15.1962 28.741
rfemur 7.49751 -2.46816 26.7642
rtibia 36.9655
rfoot 1.43346 -10.052
rtoes -23.684
lfemur -20.7628 -2.03651 -16.6186
ltibia 25.5941
lfoot -9.10663 5.62519
ltoes -22.121
491
root 1.61887 18.0849 6.28237 -0.456331 2.69388 -4.18238
lowerback 4.08719 -0.0635967 2.14443
upperback -1.70882 0.159885 3.12346
thorax -4.06301 0.0672274 2.01243
lowerneck -18.6463 0.607237 3.9333
upperneck 26.6679 1.1222 -5.06388
head 11.8909 0.245372 -2.3904
rclavicle 1.62755e-015 -1.11319e-014
rhumerus -43.615 -11.506 -67.5163
rradius 30.6453
rwrist -5.5959
rhand -15.5528 -2.71656
rfingers 7.12502
rthumb 10.6315 -32.4276
lclavicle 1.62755e-015 -1.11319e-014
lhumerus -44.5012 2.19626 81.1831
lradius 36.4694
lwrist 5.74415
lhand -10.7365 -0.62886
lfingers 7.12502
lthumb 15.2743 28.7872
rfemur 6.40136 -2.84874 26.285
rtibia 39.5895
rfoot 3.38763 -9.16514
rtoes -23.2608
lfemur -20.0615 -1.95173 -16.8306
ltibia 25.6006
lfoot -9.34409 5.57511
ltoes -22.3174
